<svg width="28" height="28" viewBox="0 0 28 28" fill="none" xmlns="http://www.w3.org/2000/svg">
<g filter="url(#filter0_d_177_3504)">
<path d="M14.4333 0.160044C14.3126 0.0567575 14.1589 0 14 0C13.8411 0 13.6874 0.0567575 13.5666 0.160044L4 8.36003V18C4 18.5304 4.21071 19.0391 4.58579 19.4142C4.96086 19.7893 5.46956 20 6 20H11.3333C11.5101 20 11.6797 19.9298 11.8047 19.8047C11.9297 19.6797 12 19.5101 12 19.3333V15.3333C12 14.8029 12.2107 14.2942 12.5858 13.9191C12.9608 13.5441 13.4695 13.3333 14 13.3333C14.5304 13.3333 15.0391 13.5441 15.4142 13.9191C15.7893 14.2942 16 14.8029 16 15.3333V19.3333C16 19.5101 16.0702 19.6797 16.1952 19.8047C16.3203 19.9298 16.4898 20 16.6666 20H22C22.5304 20 23.0391 19.7893 23.4142 19.4142C23.7892 19.0391 24 18.5304 24 18V8.36003L14.4333 0.160044Z" fill="#7E72FF"/>
</g>
<defs>
<filter id="filter0_d_177_3504" x="0" y="0" width="27.9999" height="28" filterUnits="userSpaceOnUse" color-interpolation-filters="sRGB">
<feFlood flood-opacity="0" result="BackgroundImageFix"/>
<feColorMatrix in="SourceAlpha" type="matrix" values="0 0 0 0 0 0 0 0 0 0 0 0 0 0 0 0 0 0 127 0" result="hardAlpha"/>
<feOffset dy="4"/>
<feGaussianBlur stdDeviation="2"/>
<feComposite in2="hardAlpha" operator="out"/>
<feColorMatrix type="matrix" values="0 0 0 0 0.494664 0 0 0 0 0.447656 0 0 0 0 1 0 0 0 0.4 0"/>
<feBlend mode="normal" in2="BackgroundImageFix" result="effect1_dropShadow_177_3504"/>
<feBlend mode="normal" in="SourceGraphic" in2="effect1_dropShadow_177_3504" result="shape"/>
</filter>
</defs>
</svg>
